<?xml version="1.0" encoding="utf-8"?>
<!-- Generator: Adobe Illustrator 25.1.0, SVG Export Plug-In . SVG Version: 6.00 Build 0)  -->
<svg version="1.1" id="Layer_1" xmlns="http://www.w3.org/2000/svg" xmlns:xlink="http://www.w3.org/1999/xlink" x="0px" y="0px"
	 viewBox="0 0 6846 3088" style="enable-background:new 0 0 6846 3088;" xml:space="preserve">
<style type="text/css">
	.st0{fill:#800000;stroke:#000000;stroke-width:60;}
	.st1{fill-rule:evenodd;clip-rule:evenodd;fill:#FFFFFF;}
	.st2{font-family:'OratorStd';}
	.st3{font-size:352.1026px;}
	.st4{fill:#FFFFFF;stroke:#FFFFFF;stroke-width:14;stroke-miterlimit:10;}
	.st5{fill:#FFFFFF;}
	.st6{font-size:480px;}
	.st7{fill:none;stroke:#FFFFFF;stroke-width:34;stroke-miterlimit:10;}
	.st8{fill:none;stroke:#FFFFFF;stroke-width:75;stroke-linecap:round;}
	.st9{fill:#FFFFFF;stroke:#FFFFFF;stroke-miterlimit:10;}
	.st10{font-size:200px;}
</style>
<path class="st0" d="M77.9,1418.1l-9.3,7c-10.4,7.9-11,23.4-1.1,32l8.8,7.6l1830,1586l2.7,2.3c3.7,3.2,8.5,5,13.5,5h3.5h1576.5h26.4
	c19.3,0,28-24.2,13-36.5l-20.4-16.7l-377-308.8c-14.9-12.2-6.3-36.5,13-36.5h2681c322.5,0,567-141,730.5-352.3
	c162.9-210.5,244.9-489.7,246.4-767.6s-77.3-557.2-239.6-767.9c-162.9-211.5-409-352.3-737.3-352.3H3160.1
	c-19.4,0-28-24.5-12.9-36.6l374-299.5l21-16.8c15.2-12.1,6.6-36.6-12.9-36.6h-26.9H1926h-3.2c-4.5,0-8.8,1.5-12.4,4.2l-2.5,1.9
	L77.9,1418.1z"/>
<image style="overflow:visible;enable-background:new    ;" width="192" height="192" xlink:href="../../../logo_primaria_tecuci-removebg-preview.png"  transform="matrix(3.1127 0 0 3.1127 5227.0557 1187.1002)">
</image>
<g>
	<path class="st1" d="M5930.8,2520.1c324.1-50.7,577-468.4,577-976.1s-252.8-925.3-577-976.1c21.9-3.4,44-5.2,66.5-5.2
		c355.4,0,643.5,439.3,643.5,981.3s-288.1,981.3-643.5,981.3C5974.8,2525.3,5952.6,2523.5,5930.8,2520.1z"/>
	<path class="st1" d="M5628.5,2440.2c324.1-46.6,577-430,577-896.2s-252.8-849.6-577-896.2c21.9-3.1,44-4.8,66.5-4.8
		c355.4,0,643.5,403.4,643.5,900.9s-288.1,900.9-643.5,900.9C5672.6,2444.9,5650.4,2443.3,5628.5,2440.2z"/>
	<path class="st1" d="M5334.4,2310.6c324.1-39.9,577-367.9,577-766.6s-252.8-726.8-577-766.6c21.9-2.7,44-4.1,66.5-4.1
		c355.4,0,643.5,345.1,643.5,770.7s-288.1,770.7-643.5,770.7C5378.5,2314.7,5356.3,2313.3,5334.4,2310.6z"/>
</g>
<text transform="matrix(1 0 0 1 1791.985 993.7365)" class="st2 st3">Spre mormântul</text>
<text transform="matrix(1 0 0 1 1791.985 993.7365)" class="st4 st2 st3">Spre mormântul</text>
<text transform="matrix(1 0 0 1 1379.8784 1621.8832)" class="st5 st2 st6">TUDOR PAMFILE</text>
<text transform="matrix(1 0 0 1 1379.8784 1621.8832)" class="st7 st2 st6">TUDOR PAMFILE</text>
<path class="st8" d="M1779.5,320.4L322.4,1420.8c-16.1,12.2-16.9,36.1-1.7,49.3l1458.7,1264.2"/>
<text transform="matrix(1 0 0 1 1480.9861 2064.2913)" class="st9 st2 st10">scriitor - etnolog - folclorist</text>
<text transform="matrix(1 0 0 1 1480.9861 2064.2913)" class="st4 st2 st10">scriitor - etnolog - folclorist</text>
<text transform="matrix(1 0 0 1 2680.9861 2304.2913)" class="st9 st2 st10">1883 - 1921</text>
<text transform="matrix(1 0 0 1 2680.9861 2304.2913)" class="st4 st2 st10">1883 - 1921</text>
</svg>
