<svg width="791" height="791" viewBox="0 0 791 791" fill="none" xmlns="http://www.w3.org/2000/svg">
    <path d="M27.21 413.94C48.76 400.63 70.32 387.31 93.21 376.5C96.05 375.167 98.9166 373.833 101.81 372.5C105.488 315.427 125.785 260.678 160.2 215C153.61 213.18 146.95 211.6 140.31 210.18C120.62 205.96 100.31 202.4 80.17 201.5C70.3761 201.044 60.5618 201.325 50.81 202.34C17.7679 261.27 0.461934 327.718 0.559985 395.28C0.559985 407.03 1.09999 418.66 2.09999 430.15C10.34 424.5 18.76 419.16 27.21 413.94Z" fill="#077187"/>
    <path d="M321.55 105.48L323.91 106.12C338.283 102.519 352.908 100.009 367.66 98.61C367.53 97.68 367.39 96.76 367.27 95.83C363.21 64.83 361.34 33.36 359.64 2.13002C359.64 1.99002 359.64 1.84001 359.64 1.70001C286.83 8.27542 217.296 35.0238 158.85 78.94C213.89 80.36 268.4 91.36 321.55 105.48Z" fill="#74A57F"/>
    <path d="M215.69 95.1C191.899 91.9871 167.923 90.5103 143.93 90.68C109.938 118.815 80.8732 152.419 57.93 190.11C88.63 188.37 119.86 193.47 149.6 200.37C155.72 201.79 161.85 203.37 167.92 205.16C203.089 162.237 249.652 130.103 302.26 112.45C273.74 105.25 244.82 98.8 215.69 95.1Z" fill="#E4C5AF"/>
    <path d="M379.13 97.73C384.63 97.4167 390.17 97.26 395.75 97.26C446.394 97.1856 496.192 110.236 540.29 135.14C536.454 121.417 531.928 107.897 526.73 94.63C515.78 67 502.47 40 492.46 12C460.838 4.05108 428.355 0.0406848 395.75 0.060006C387.49 0.060006 379.29 0.313349 371.15 0.820016C371.497 7.28002 371.877 13.7367 372.29 20.19C374 46.06 375.71 72 379.13 97.73Z" fill="#9ECE9A"/>
    <path d="M614 194.09C645 192.09 676 189.86 707.07 188.69C715.437 188.37 723.827 188.133 732.24 187.98C680.756 104.528 600.152 43.1364 506.02 15.68C508.92 23.38 512.02 31 515.26 38.57C524 59 533.37 79.19 541.15 100C546.357 114.249 550.75 128.783 554.31 143.53C576.356 157.668 596.428 174.67 614 194.09V194.09Z" fill="#74A57F"/>
    <path d="M623.48 205C651.869 239.538 671.998 280.102 682.33 323.6C708.855 328.59 735.014 335.359 760.63 343.86C770.03 346.98 779.45 350.29 788.8 353.86C783.162 299.481 766.23 246.878 739.09 199.42C700.53 199.85 662 202.47 623.48 205Z" fill="#E4C5AF"/>
    <path d="M765.27 398.38C740.08 411.77 714.27 424.44 687.27 433.89C681.36 475.221 666.679 514.81 644.21 550C642.45 561.55 643.05 573.29 648.07 585.38C656.38 605.38 672.51 621.56 689.46 634.5C693.81 637.82 698.29 640.97 702.85 644C759.959 573.7 791.071 485.853 790.94 395.28C790.94 391.71 790.88 388.15 790.78 384.6C782.3 389.22 773.81 393.85 765.27 398.38Z" fill="#077187"/>
    <path d="M688.82 421.05C698.72 417.42 708.47 413.36 718.07 408.98C735.34 401.11 752.19 392.36 768.87 383.32C775.94 379.5 783.11 375.74 790.24 371.91C790.13 370.16 790.03 368.41 789.9 366.66C776.57 361.38 763 356.66 749.47 352.42C728.3 345.729 706.778 340.211 685 335.89C688.535 354.31 690.309 373.024 690.3 391.78C690.273 401.66 689.78 411.417 688.82 421.05Z" fill="#74A57F"/>
    <path d="M131.75 522.42C111.623 481.816 101.179 437.099 101.24 391.78C101.24 389.653 101.26 387.527 101.3 385.4C98 386.98 94.7333 388.57 91.5 390.17C69.14 401.26 47.83 414.6 26.7 427.88C18.86 432.81 11.06 437.88 3.45999 443.22C7.53144 476.828 15.9345 509.768 28.46 541.22C62.77 534.38 97.33 528.74 131.75 522.42Z" fill="#E4C5AF"/>
    <path d="M181.12 593.43C164.119 575.34 149.464 555.182 137.5 533.43C126.24 535.57 114.967 537.637 103.68 539.63C80.14 543.82 56.49 547.63 32.98 552.19C63.6553 622.833 114.229 683.021 178.53 725.41C175.69 715.06 173.28 704.6 171.39 694.08C166.07 664.49 164.76 633.89 175.76 605.4C177.338 601.32 179.127 597.324 181.12 593.43V593.43Z" fill="#077187"/>
    <path d="M395.75 686.29C318.679 686.389 244.661 656.17 189.68 602.16C187.317 607.226 185.331 612.461 183.74 617.82C175.23 646.66 179.03 677.33 185.66 706.16C187.867 715.78 190.447 725.31 193.4 734.75C249.374 768.189 312.789 787.176 377.93 790C386.249 779.418 393.297 767.895 398.93 755.67C409 733.53 414.44 709.62 421.22 686.36C421.34 685.95 421.47 685.54 421.59 685.13C413.063 685.897 404.45 686.283 395.75 686.29Z" fill="#9ECE9A"/>
    <path d="M491.3 683.06C511.45 690.46 531.79 697.37 551.97 704.71C571.97 711.99 592.11 718.99 612.27 725.88C643.241 705.54 671.216 680.969 695.38 652.88C686.764 647.144 678.542 640.836 670.77 634C653.17 618.39 637.25 598.1 632.77 574.46C632.35 572.25 632.06 570.06 631.86 567.88C592.527 620.604 536.693 658.662 473.24 676C479.19 678.51 485.24 680.84 491.3 683.06Z" fill="#E4C5AF"/>
    <path d="M529.91 708.88C505.08 699.74 478.69 692.4 454.91 680.32C448.09 681.71 441.19 682.89 434.21 683.8C432.36 689.55 430.64 695.36 428.99 701.25C422.38 724.95 415.89 748.91 404.36 770.79C400.755 777.592 396.696 784.144 392.21 790.4C393.39 790.4 394.57 790.4 395.75 790.4C467.65 790.52 538.207 770.927 599.75 733.75C576.39 725.67 553.11 717.42 529.91 708.88Z" fill="#74A57F"/>
    <path d="M396 687.8C233.44 687.8 101.2 555.55 101.2 393C101.2 230.45 233.44 98.2 396 98.2C558.56 98.2 690.8 230.45 690.8 393C690.8 555.55 558.55 687.8 396 687.8Z" fill="#FAF5E9"/>
    <path d="M296.62 378.72H304.89V350.2H296.62V378.72ZM300.76 346.23C303.83 346.23 305.9 344.23 305.9 341.46C305.9 338.91 303.83 337 300.76 337C297.69 337 295.62 339 295.62 341.62C295.62 344.24 297.68 346.23 300.76 346.23ZM280.68 378.72H288.95V350.2H280.68V378.72ZM284.81 346.23C287.89 346.23 289.95 344.23 289.95 341.46C289.95 338.91 287.89 337 284.81 337C281.73 337 279.67 339 279.67 341.62C279.67 344.24 281.73 346.23 284.8 346.23H284.81ZM261.38 349.78C259.632 349.709 257.889 350.007 256.264 350.655C254.64 351.303 253.169 352.286 251.95 353.54V350.2H244.05V378.72H252.32V364.62C252.32 359.37 255.18 356.94 259.16 356.94C262.81 356.94 264.93 359.06 264.93 363.67V378.67H273.2V362.45C273.19 353.7 268.1 349.78 261.37 349.78H261.38ZM223.74 356.03C225.439 355.962 227.102 356.535 228.398 357.635C229.695 358.735 230.531 360.282 230.74 361.97H216.68C216.885 360.272 217.727 358.714 219.035 357.612C220.344 356.51 222.021 355.944 223.73 356.03H223.74ZM238.53 364.57C238.53 355.4 232.07 349.78 223.69 349.78C215 349.78 208.48 355.93 208.48 364.46C208.48 372.99 214.89 379.15 224.75 379.15C229.89 379.15 233.87 377.56 236.52 374.54L232.12 369.76C231.179 370.685 230.058 371.408 228.826 371.882C227.595 372.357 226.279 372.574 224.96 372.52C220.62 372.52 217.6 370.35 216.8 366.8H238.38C238.42 366.11 238.52 365.21 238.52 364.57H238.53ZM195.37 370.45C193.316 371.544 191.016 372.091 188.69 372.04C181.59 372.04 176.69 367.11 176.69 360.17C176.69 353.23 181.62 348.29 188.83 348.29C190.637 348.258 192.43 348.616 194.086 349.339C195.743 350.062 197.224 351.133 198.43 352.48L203.94 347.39C200.33 343.21 194.94 340.98 188.41 340.98C176.59 340.98 168 348.98 168 360.17C168 371.36 176.59 379.36 188.25 379.36C193.622 379.402 198.87 377.751 203.25 374.64V359.59H195.4L195.37 370.45Z" fill="#074F57"/>
    <path d="M389.39 356.03C391.089 355.962 392.752 356.535 394.048 357.635C395.345 358.735 396.181 360.282 396.39 361.97H382.34C382.543 360.271 383.384 358.712 384.693 357.609C386.002 356.506 387.681 355.942 389.39 356.03V356.03ZM404.18 364.57C404.18 355.4 397.71 349.78 389.34 349.78C380.65 349.78 374.13 355.93 374.13 364.46C374.13 372.99 380.54 379.15 390.4 379.15C395.54 379.15 399.52 377.56 402.17 374.54L397.77 369.76C396.828 370.685 395.707 371.407 394.476 371.881C393.244 372.356 391.929 372.573 390.61 372.52C386.26 372.52 383.24 370.35 382.45 366.8H404.02C404.08 366.11 404.18 365.21 404.18 364.57ZM360.29 378.72H368.56V339.39H360.29V378.72ZM338.45 373.58C335.53 373.58 333.78 372.2 333.78 370.14C333.78 368.08 335 366.8 338.87 366.8H344.55V369.71C343.59 372.31 341.21 373.58 338.45 373.58ZM339.09 349.78C334.53 349.78 329.91 351 326.79 353.22L329.79 359C332.17 357.256 335.049 356.326 338 356.35C342.45 356.35 344.58 358.42 344.58 361.97H338C329.31 361.97 325.76 365.47 325.76 370.51C325.76 375.55 329.76 379.15 336.41 379.15C340.6 379.15 343.57 377.77 345.11 375.15V378.7H352.84V362.45C352.81 353.81 347.78 349.78 339.09 349.78Z" fill="#074F57"/>
    <path d="M615.32 378.72H623.59V350.2H615.32V378.72ZM619.46 346.23C622.53 346.23 624.6 344.23 624.6 341.46C624.6 338.91 622.53 337 619.46 337C616.39 337 614.32 339 614.32 341.62C614.32 344.24 616.38 346.23 619.46 346.23ZM599.37 378.72H607.68V350.2H599.41L599.37 378.72ZM603.5 346.23C606.58 346.23 608.64 344.23 608.64 341.46C608.64 338.91 606.58 337 603.5 337C600.42 337 598.36 339 598.36 341.62C598.36 344.24 600.43 346.23 603.5 346.23V346.23ZM584.68 353.97V350.2H576.78V378.72H585.05V365.26C585.05 359.8 588.05 357.31 592.63 357.31C593.27 357.31 593.8 357.31 594.49 357.41V349.78C590.04 349.78 586.68 351.21 584.68 353.97ZM560.82 350.2V364.3C560.82 369.55 558.07 371.99 554.25 371.99C550.59 371.99 548.47 369.87 548.47 365.1V350.2H540.2V366.32C540.2 375.12 545.2 379.15 552.4 379.15C554.063 379.188 555.715 378.867 557.243 378.207C558.77 377.548 560.137 376.567 561.25 375.33V378.72H569.09V350.2H560.82ZM533.47 371.51C532.5 372.214 531.328 372.586 530.13 372.57C527.91 372.57 526.58 371.25 526.58 368.81V357.2H533.68V350.84H526.58V343.9H518.31V350.84H513.91V357.2H518.31V368.92C518.31 375.7 522.23 379.15 528.97 379.15C531.344 379.236 533.689 378.605 535.7 377.34L533.47 371.51ZM499.28 378.72H507.55V339.39H499.28V378.72ZM483.28 350.2V364.3C483.28 369.55 480.53 371.99 476.71 371.99C473.05 371.99 470.93 369.87 470.93 365.1V350.2H462.68V366.32C462.68 375.12 467.68 379.15 474.87 379.15C476.535 379.188 478.188 378.867 479.717 378.208C481.246 377.548 482.615 376.567 483.73 375.33V378.72H491.57V350.2H483.28ZM443.05 379.36C449.52 379.36 454.87 377.03 458.37 372.73L452.86 367.64C451.738 369.03 450.316 370.148 448.7 370.911C447.084 371.673 445.316 372.059 443.53 372.04C436.53 372.04 431.65 367.17 431.65 360.17C431.65 353.17 436.58 348.29 443.53 348.29C445.31 348.278 447.071 348.661 448.685 349.414C450.299 350.166 451.725 351.268 452.86 352.64L458.37 347.55C454.87 343.31 449.52 340.98 443.1 340.98C431.55 340.98 422.96 348.98 422.96 360.17C422.96 371.36 431.54 379.36 443.04 379.36H443.05Z" fill="#074F57"/>
    <path d="M496.39 419.52C498.089 419.452 499.752 420.025 501.048 421.125C502.345 422.225 503.181 423.772 503.39 425.46H489.34C489.545 423.762 490.387 422.204 491.695 421.102C493.004 420 494.681 419.434 496.39 419.52V419.52ZM511.18 428.05C511.18 418.88 504.72 413.26 496.34 413.26C487.65 413.26 481.13 419.41 481.13 427.95C481.13 436.49 487.54 442.63 497.4 442.63C502.54 442.63 506.52 441.04 509.17 438.02L504.77 433.25C503.827 434.173 502.706 434.894 501.475 435.368C500.243 435.843 498.928 436.061 497.61 436.01C493.27 436.01 490.24 433.83 489.45 430.28H511.02C511.08 429.59 511.18 428.69 511.18 428.05ZM463.68 413.26C461.932 413.191 460.188 413.491 458.563 414.141C456.939 414.79 455.469 415.775 454.25 417.03V413.69H446.35V442.21H454.62V428.11C454.62 422.86 457.48 420.42 461.46 420.42C465.11 420.42 467.23 422.54 467.23 427.15V442.21H475.5V425.88C475.45 417.19 470.37 413.26 463.68 413.26ZM424.51 437.07C421.59 437.07 419.84 435.69 419.84 433.62C419.84 431.71 421.06 430.28 424.93 430.28H430.6V433.2C430.126 434.418 429.274 435.451 428.168 436.148C427.063 436.844 425.763 437.168 424.46 437.07H424.51ZM425.14 413.26C420.59 413.26 415.97 414.48 412.85 416.71L415.85 422.49C418.232 420.743 421.116 419.813 424.07 419.84C428.52 419.84 430.64 421.9 430.64 425.46H423.98C415.29 425.46 411.74 428.95 411.74 433.99C411.74 439.03 415.74 442.63 422.39 442.63C426.58 442.63 429.55 441.25 431.08 438.63V442.18H438.82V425.93C438.82 417.29 433.79 413.26 425.09 413.26H425.14ZM425.99 406L430.6 410H436.6L429.6 402.37H422.28L415.28 410H421.28L425.99 406ZM394.56 413.26C392.602 413.201 390.656 413.591 388.873 414.4C387.089 415.21 385.514 416.417 384.27 417.93C382.27 414.8 378.87 413.26 374.89 413.26C373.21 413.188 371.535 413.483 369.981 414.123C368.427 414.764 367.031 415.735 365.89 416.97V413.69H357.99V442.21H366.26V427.89C366.26 422.81 368.86 420.42 372.52 420.42C375.96 420.42 377.93 422.54 377.93 427.15V442.21H386.19V427.89C386.19 422.81 388.79 420.42 392.5 420.42C395.84 420.42 397.91 422.54 397.91 427.15V442.21H406.18V425.88C406.17 417.19 401.29 413.26 394.51 413.26H394.56ZM336.83 435.85C332.7 435.85 329.52 432.85 329.52 427.95C329.52 423.05 332.7 420.05 336.83 420.05C340.96 420.05 344.09 423.05 344.09 427.95C344.09 432.85 340.97 435.85 336.83 435.85ZM336.83 442.63C345.9 442.63 352.47 436.54 352.47 427.95C352.47 419.36 345.9 413.26 336.83 413.26C327.76 413.26 321.14 419.36 321.14 427.95C321.14 436.54 327.77 442.63 336.83 442.63ZM308.37 418.56C308.37 422.56 305.72 425.03 300.47 425.03H293.47V412.1H300.47C305.68 412.1 308.37 414.45 308.37 418.56V418.56ZM317.75 442.21L309.43 430.28C311.761 429.36 313.748 427.738 315.115 425.638C316.483 423.538 317.162 421.064 317.06 418.56C317.06 410.24 310.86 405.1 300.94 405.1H284.88V442.21H293.47V431.87H301.37L308.52 442.21H317.75Z" fill="#074F57"/>
    <path d="M201.07 463.19H584.94" stroke="#074F57" stroke-width="4" stroke-miterlimit="10"/>
    </svg>
    